<svg xmlns="http://www.w3.org/2000/svg" viewBox="0 0 1000 1000"><title>background-illustration</title><g id="Layer_2" data-name="Layer 2"><rect width="1000" height="1000" style="fill:#1d1a1a"/></g><g id="Layer_1" data-name="Layer 1"><path d="M52.691,74.177a37.689,37.689,0,1,0,37.559,40.689h97.432v-3A48.551,48.551,0,0,1,217.11,67.292l3.631,10.2a37.476,37.476,0,1,0,5.649-2.021l-3.626-10.186a48.318,48.318,0,0,1,13.4-1.9h3.267l-.277-3.255a85.028,85.028,0,0,0-6.01-23.5c-6.812-15.961-17.763-24.4-31.668-24.4v6c23.2,0,29.746,29.423,31.285,39.254a54.117,54.117,0,0,0-14.8,3.023c-.023.008-.046.009-.069.017s-.065.033-.1.047a54.594,54.594,0,0,0-36.023,48.288H104.085V56.823l-64.6-23.649L29.854,20.368l44.519,2.193L88.788,38.7l127.784-.931-.044-6L197.57,31.9l-19.9-16.249a3,3,0,0,0-3.795,4.647l14.291,11.67-96.712.7L77.176,16.692,17.37,13.746,35.752,38.2l60.1,22L75.807,82.13A37.491,37.491,0,0,0,52.691,74.177Zm183.472,6a31.715,31.715,0,1,1-13.4,2.984l1.037,2.914a28.716,28.716,0,1,0,5.653-2.011l-1.041-2.923A31.635,31.635,0,0,1,236.164,80.177Zm2.826,30.683-7.515-21.108a22.655,22.655,0,1,1-5.65,2.021l7.512,21.1a3,3,0,0,0,5.652-2.013ZM80.921,108.867a28.278,28.278,0,0,0-6.982-15.8l2.24-2.451a31.574,31.574,0,0,1,8.056,18.25Zm-30.974,4.21a3,3,0,0,0,2.745,1.79H74.874a22.41,22.41,0,1,1-9.436-21.392l-14.96,16.368A3,3,0,0,0,49.946,113.077Zm9.551-4.21L69.866,97.523a22.3,22.3,0,0,1,5.008,11.344Zm-6.806,34.689A31.689,31.689,0,1,1,71.75,86.568l-2.237,2.448a28.379,28.379,0,1,0,11.408,25.851h3.314A31.73,31.73,0,0,1,52.691,143.556Zm37.559-34.689A37.549,37.549,0,0,0,80.235,86.178l17.85-19.53v42.218Z" style="fill:#2a2a2a"/><path d="M113.983,83.338A17.518,17.518,0,1,0,131.5,65.819,17.538,17.538,0,0,0,113.983,83.338Zm29.036,0A11.518,11.518,0,1,1,131.5,71.819,11.531,11.531,0,0,1,143.019,83.338Z" style="fill:#2a2a2a"/><path d="M51.969,223.559l-4.157-46.24H29.035l-4.157,46.24L14.79,234.182v59.161l7.888,6.6H54.169l7.888-6.6V234.182Zm4.088,66.982-4.068,3.406H24.858l-4.068-3.406V236.577l9.877-10.4,3.853-42.857h7.808l3.853,42.857,9.877,10.4Z" style="fill:#2a2a2a"/><path d="M261.362,181.738l-3.455-1.219h0L244.239,175.7H100.006v27.242H244.321l22.947-9.478,12.588-5.2h0Zm-140.327,15.2H106.006V181.7h15.029Zm12.529,0h-6.529V181.7h6.529Zm124.343-6.1-13,5.37-2.4-3.772v-5.565l2.579-4.509,12.821,4.523ZM139.565,181.7h98.988l-2.045,3.576v8.906l1.755,2.76h-98.7Z" style="fill:#2a2a2a"/><path d="M136.565,228.866H99.479l11.56,71.081h51.052l11.56-71.081Zm0,6h20.853L151.3,275.326c-.487,1.24-3.816,8.53-14.737,8.53s-14.242-7.268-14.738-8.531l-6.115-40.458Zm20.422,59.081H116.143l-9.609-59.081h3.11l6.295,41.646.109.467c.168.526,4.311,12.877,20.517,12.877s20.348-12.351,20.517-12.877l.073-.229,6.332-41.883H166.6Z" style="fill:#2a2a2a"/><path d="M25.912,446.943h204.43V347.067H25.912Zm6-93.875h192.43v87.875H31.912Z" style="fill:#2a2a2a"/><path d="M112.609,481.371H75.265v20.39H182.033v-20.39H144.688V458.935h97.819V335.761H15.007l-.223,123.173h97.825Zm63.424,6v8.39H81.265v-8.39h37.345V458.935h20.079v28.437ZM21,341.761H236.508V452.935H20.8Z" style="fill:#2a2a2a"/><path d="M284.471,345.261V492.9l.037.468c.822,5.2,4.976,15.042,14.815,15.042h77.7c9.84,0,13.994-9.839,14.815-15.042l.037-.232V345.407l-.014-.292c-.547-5.6-4.7-16.206-16.484-16.206h-74.4c-11.788,0-15.937,10.6-16.484,16.206Zm6,.314c.193-1.592,1.684-10.666,10.5-10.666h74.4c8.831,0,10.31,9.107,10.5,10.664V492.629c-.276,1.41-2.2,9.778-8.852,9.778h-77.7c-6.679,0-8.572-8.32-8.852-9.775Z" style="fill:#2a2a2a"/><path d="M338.17,496.062a11.4,11.4,0,1,0-11.4-11.4A11.408,11.408,0,0,0,338.17,496.062Zm0-16.791a5.4,5.4,0,1,1-5.4,5.4A5.4,5.4,0,0,1,338.17,479.271Z" style="fill:#2a2a2a"/><path d="M308.952,350.629a5.469,5.469,0,1,0-5.469-5.469A5.476,5.476,0,0,0,308.952,350.629Zm0-6a.531.531,0,1,1-.531.531A.532.532,0,0,1,308.952,344.629Z" style="fill:#2a2a2a"/><path d="M332.245,350.629H344.1a5.469,5.469,0,1,0,0-10.938H332.245a5.469,5.469,0,1,0,0,10.938Z" style="fill:#2a2a2a"/><path d="M269.176,242.446l-.818-12.247-1.381-.8a39.067,39.067,0,0,0-5.522-2.646l-1.483-.572-10.149,7.04a29.054,29.054,0,0,0-4.825,0l-10.149-7.04-1.483.572a39.063,39.063,0,0,0-5.522,2.647l-1.382.8-.819,12.247a30.264,30.264,0,0,0-3.155,3.912l-11.849,3.551-.479,1.514a38.9,38.9,0,0,0-1.353,5.781l-.245,1.589,9.012,8.228a29.976,29.976,0,0,0,1.181,5.361l-4.584,11.409.9,1.321a39.3,39.3,0,0,0,3.545,4.48l1.09,1.188,12.014-1.91a29.976,29.976,0,0,0,5.262,2.552l6.017,10.618,1.6.115c1.059.076,1.952.111,2.811.111s1.753-.035,2.811-.111l1.6-.115,6.017-10.618a30.015,30.015,0,0,0,5.263-2.552l12.014,1.91,1.09-1.188a39.3,39.3,0,0,0,3.545-4.48l.9-1.321-4.584-11.409a29.957,29.957,0,0,0,1.181-5.361l9.012-8.228-.245-1.589a38.995,38.995,0,0,0-1.352-5.78l-.479-1.514-11.85-3.551A30.211,30.211,0,0,0,269.176,242.446ZM279.8,256.56l-8.308,7.584-.1,1.167a24,24,0,0,1-1.348,6.128l-.393,1.079,4.22,10.5q-.5.671-1.044,1.319l-11.072-1.76-.977.654a24,24,0,0,1-5.92,2.872l-1.108.36-5.546,9.787c-.55.017-1.044.017-1.594,0l-5.546-9.787-1.108-.36a23.97,23.97,0,0,1-5.919-2.872l-.978-.654-11.073,1.76q-.539-.647-1.044-1.319l4.22-10.5-.393-1.079a23.968,23.968,0,0,1-1.348-6.128l-.1-1.167-8.308-7.584q.188-.918.429-1.828l10.906-3.268.6-.963a24.214,24.214,0,0,1,3.7-4.585l.828-.8.754-11.281q.91-.472,1.847-.885l9.342,6.48,1.129-.134a23.424,23.424,0,0,1,5.723,0l1.129.134,9.342-6.48q.936.413,1.847.885l.754,11.281.828.8a24.221,24.221,0,0,1,3.7,4.585l.6.963,10.906,3.268Q279.615,255.64,279.8,256.56Z" style="fill:#2a2a2a"/><path d="M247.409,245.825A17.194,17.194,0,1,0,264.6,263.019,17.213,17.213,0,0,0,247.409,245.825Zm0,28.388A11.194,11.194,0,1,1,258.6,263.019,11.206,11.206,0,0,1,247.409,274.212Z" style="fill:#2a2a2a"/><path d="M338.17,79.06a33.411,33.411,0,1,0-33.411-33.411A33.449,33.449,0,0,0,338.17,79.06Zm0-60.823a27.411,27.411,0,1,1-27.411,27.412A27.442,27.442,0,0,1,338.17,18.237Z" style="fill:#2a2a2a"/><path d="M348.929,64.283l10.759-18.634L348.929,27.014H327.412L316.654,45.648l10.758,18.634ZM330.876,33.014h14.589l7.294,12.634-7.294,12.634H330.876l-7.294-12.634Z" style="fill:#2a2a2a"/><path d="M318.36,163.226V286.855a19.81,19.81,0,1,0,39.621,0V163.226a35.029,35.029,0,0,0,9.23-48.5l-.892-1.319H351.642v28.7L338.17,149.88,324.7,142.1v-28.7H310.021l-.892,1.319a35.029,35.029,0,0,0,9.231,48.5Zm-5.1-43.82H318.7v26.16l19.472,11.242,19.472-11.242v-26.16h5.441a29.035,29.035,0,0,1-9.679,39.641l-1.423.879V286.855a13.81,13.81,0,1,1-27.621,0V159.926l-1.423-.879a29.035,29.035,0,0,1-9.68-39.641Z" style="fill:#2a2a2a"/><path d="M338.17,297.222A10.366,10.366,0,1,0,327.8,286.855,10.378,10.378,0,0,0,338.17,297.222Zm0-14.732a4.366,4.366,0,1,1-4.366,4.366A4.371,4.371,0,0,1,338.17,282.489Z" style="fill:#2a2a2a"/><path d="M462.018,297.349l20.2-34.99-20.2-34.99h-40.4l-20.2,34.99,20.2,34.99Zm-36.938-63.979h33.475l16.737,28.99-16.737,28.99H425.079l-16.737-28.99Z" style="fill:#2a2a2a"/><path d="M441.816,281.8a19.445,19.445,0,1,0-19.445-19.445A19.467,19.467,0,0,0,441.816,281.8Zm0-32.891a13.445,13.445,0,1,1-13.445,13.445A13.461,13.461,0,0,1,441.816,248.914Z" style="fill:#2a2a2a"/><path d="M651.68,60.34c.041-.007,4.056-.451,4.342,1.166.749,4.25,1.776,10.07-8.361,18.229-8.733,7.03-61.784,30.015-88.615,41.187L556.459,122l13.875,41.033a6.664,6.664,0,0,0,3.369,4.411,6.9,6.9,0,0,0,3.2.745,13.019,13.019,0,0,0,5.723-1.581c7.245-3.623,57.466-34.333,59.6-35.639l.223-.15c.077-.058,7.967-5.791,22.073-5.791,15.96,0,32.557-10.571,33.255-11.021l.782-.5.359-.857c.492-1.171,11.975-28.945,5.967-52.4l-.021-.075c-.133-.468-3.376-11.592-14-22.752-9.739-10.235-27.8-22.435-58.532-22.435-30.906,0-47.652,13.626-56.259,25.057a61.257,61.257,0,0,0-11.356,25.218l-.576,3.816L651.5,60.363Zm-80.1,1.959a58.365,58.365,0,0,1,9.456-18.865c11.331-14.9,28.593-22.456,51.307-22.456,22.837,0,41,6.849,53.979,20.355A55.7,55.7,0,0,1,699.089,61.78c4.914,19.287-3.506,42.868-5.354,47.667-3.375,2.016-16.863,9.579-29.211,9.579-15.245,0-24.306,6.021-25.521,6.88-2.506,1.532-52.184,31.9-59.06,35.333-2.041,1.021-3.151,1.027-3.483.873-.157-.073-.246-.322-.259-.338l0-.128-12.263-36.267c13.859-5.812,76.97-32.506,87.485-40.971,12.9-10.383,11.344-19.206,10.508-23.946-.919-5.2-6.384-6.787-11.1-6.062Z" style="fill:#2a2a2a"/><path d="M556.377,116.691l3.582-1.435c.193-.077,19.577-7.856,39.144-17.007,40.655-19.013,42.546-25.405,43.258-27.812l1.25-4.227L558.9,73.68l-.621,1.871c-.214.646-5.223,16.079-2.408,37.314ZM563.452,79.3l68.788-6.065c-4.787,3.659-14.785,9.8-35.658,19.567-14.384,6.727-28.675,12.71-35.194,15.391A88.644,88.644,0,0,1,563.452,79.3Z" style="fill:#2a2a2a"/><path d="M434.257,330.48v21.029H428.2V474.794l8.587,20.79,6.09,14.745h0l5.514-15.63,2.229-6.318h0l4.822-13.669v-123.2h-6.062V330.48Zm6,6h3.119v15.029h-3.119Zm9.18,21.029V473.685l-5.185,14.7H440.3L434.2,473.6V357.509h15.242Z" style="fill:#2a2a2a"/><path d="M448.071,364.541H435.292V406h12.778Zm-6,35.46h-.778v-29.46h.778Z" style="fill:#2a2a2a"/><path d="M604.069,263.714H530.961a16.039,16.039,0,0,0,0,32.078h86.454a10.039,10.039,0,0,1,0,20.078H580.554A16.058,16.058,0,0,0,564.8,328.96c-32.4,1.05-58.352,21.047-58.46,45.515l-9.03,91.931-.014.293c0,28.873,31.482,52.363,70.179,52.363s70.179-23.49,70.179-52.363v-.147l-9.045-92.078c-.107-24.266-25.626-44.136-57.656-45.487a10.055,10.055,0,0,1,9.6-7.118h36.861a16.039,16.039,0,0,0,0-32.078H530.961a10.039,10.039,0,0,1,0-20.078h73.108a16.039,16.039,0,1,0,0-32.078h-48a10.057,10.057,0,0,1-9.58-7.039h8.482V204.79H531.085V230.6h9.232a16.059,16.059,0,0,0,15.748,13.039h48a10.039,10.039,0,1,1,0,20.078ZM525.422,348.98c9.516-8.085,23.426-13.4,39.052-14.01v12.1h-9.251V383.9h9.251v34.6H525.422Zm35.8,28.922V353.067h12.5V377.9Zm9.251,6h9.25V347.067h-9.25v-12.1c15.671.609,29.617,5.956,39.135,14.08V418.5H570.474Zm52.134-9.277v.147l9.045,92.071c-.109,25.5-28.857,46.219-64.179,46.219s-64.07-20.721-64.179-46.219l9.029-91.925.015-.293a31.38,31.38,0,0,1,7.083-19.439V424.5h96.187V355.291A31.346,31.346,0,0,1,622.607,374.625ZM537.085,210.79h11.881V224.6H537.085Z" style="fill:#2a2a2a"/><path d="M704.731,147.2H678.657l-.672,2.077c-.458,1.417-11.228,35.262-11.228,84.111s12,85.234,12.123,85.6l.687,2.046h24.254l.687-2.046c.121-.362,12.123-36.734,12.123-85.6s-10.77-82.694-11.228-84.111Zm-4.419,6c.776,2.711,2.191,8,3.729,15.374h-24.7c1.538-7.372,2.954-12.663,3.729-15.374Zm-.859,161.83H683.935c-2.456-8.211-11.177-40.284-11.177-81.642a323.51,323.51,0,0,1,5.405-58.813h27.063a323.51,323.51,0,0,1,5.405,58.813C710.631,274.7,701.908,306.813,699.453,315.031Z" style="fill:#2a2a2a"/><path d="M889.174,344.065H678.657v175H889.174Zm-110.5,100.73-94.012,65.521V379.274Zm-87.461-68.268H876.623l-92.707,64.612Zm92.707,71.924,92.708,64.612H691.208Zm5.246-3.656,94.012-65.52V510.316Zm94.012-94.73v20.462H684.657V350.065Z" style="fill:#2a2a2a"/><path d="M871.1,368.758a8.77,8.77,0,1,0-8.77-8.77A8.779,8.779,0,0,0,871.1,368.758Zm0-11.539a2.77,2.77,0,1,1-2.77,2.77A2.772,2.772,0,0,1,871.1,357.219Z" style="fill:#2a2a2a"/><path d="M847.412,368.758a8.77,8.77,0,1,0-8.769-8.77A8.779,8.779,0,0,0,847.412,368.758Zm0-11.539a2.77,2.77,0,1,1-2.769,2.77A2.772,2.772,0,0,1,847.412,357.219Z" style="fill:#2a2a2a"/><path d="M822.147,368.758a8.77,8.77,0,1,0-8.769-8.77A8.779,8.779,0,0,0,822.147,368.758Zm0-11.539a2.77,2.77,0,1,1-2.769,2.77A2.772,2.772,0,0,1,822.147,357.219Z" style="fill:#2a2a2a"/><path d="M929.265,180.842v338.22H987.17V180.842Zm51.905,332.22H935.265V489.629h29.891v-6H935.265V466.805h7.792v-6h-7.792V443.981h16.528v-6H935.265V421.158h7.792v-6h-7.792V398.866h29.891v-6H935.265V376.042h7.792v-6h-7.792V353.219h16.528v-6H935.265V330.4h7.792v-6h-7.792V307.571h29.891v-6H935.265V284.748h7.792v-6h-7.792V261.924h16.528v-6H935.265V239.1h7.792v-6h-7.792V216.276h29.891v-6H935.265V186.842H981.17Z" style="fill:#2a2a2a"/><path d="M158.561,613.276H16.2V841.289H158.561Zm-6,6V638.63H22.2V619.276ZM22.2,835.289V644.63H152.561V835.289Z" style="fill:#2a2a2a"/><path d="M43.7,650.193A15.077,15.077,0,1,0,58.775,665.27,15.094,15.094,0,0,0,43.7,650.193Zm0,24.153a9.077,9.077,0,1,1,9.077-9.077A9.087,9.087,0,0,1,43.7,674.347Z" style="fill:#2a2a2a"/><path d="M43.7,687.966a15.077,15.077,0,1,0,15.077,15.077A15.094,15.094,0,0,0,43.7,687.966Zm0,24.154a9.077,9.077,0,1,1,9.077-9.077A9.087,9.087,0,0,1,43.7,712.12Z" style="fill:#2a2a2a"/><path d="M43.7,725.738a15.077,15.077,0,1,0,15.077,15.077A15.094,15.094,0,0,0,43.7,725.738Zm0,24.154a9.077,9.077,0,1,1,9.077-9.077A9.087,9.087,0,0,1,43.7,749.893Z" style="fill:#2a2a2a"/><path d="M43.7,763.512a15.077,15.077,0,1,0,15.077,15.077A15.094,15.094,0,0,0,43.7,763.512Zm0,24.154a9.077,9.077,0,1,1,9.077-9.077A9.087,9.087,0,0,1,43.7,787.666Z" style="fill:#2a2a2a"/><path d="M43.7,801.284a15.077,15.077,0,1,0,15.077,15.077A15.094,15.094,0,0,0,43.7,801.284Zm0,24.154a9.077,9.077,0,1,1,9.077-9.077A9.087,9.087,0,0,1,43.7,825.438Z" style="fill:#2a2a2a"/><path d="M252.132,641.988l-35.853-26.021a9.693,9.693,0,0,0-10.263-.853,11.773,11.773,0,0,0-6.176,10.679V743.427c0,9.608,4.262,18.438,11.4,23.62l31.526,22.882a10.836,10.836,0,0,0,6.386,2.126,10.694,10.694,0,0,0,4.872-1.189,13,13,0,0,0,6.809-11.795V659.981A22.1,22.1,0,0,0,252.132,641.988Zm2.7,137.082a7,7,0,0,1-3.534,6.449,4.615,4.615,0,0,1-5.008-.446l-31.526-22.882c-5.588-4.057-8.925-11.071-8.925-18.765V625.793a5.783,5.783,0,0,1,2.9-5.333,3.7,3.7,0,0,1,4.013.362l35.853,26.021a16.313,16.313,0,0,1,6.227,13.138Z" style="fill:#2a2a2a"/><path d="M199.841,890.114h60.993V829.122H199.841Zm6-54.992h48.993v48.992H205.841Z" style="fill:#2a2a2a"/><path d="M199.841,983.647h60.993V922.654H199.841Zm6-54.993h48.993v48.993H205.841Z" style="fill:#2a2a2a"/><path d="M230.337,853.021a6.6,6.6,0,1,0,6.6,6.6A6.605,6.605,0,0,0,230.337,853.021Zm0,7.2a.6.6,0,1,1,.6-.6A.6.6,0,0,1,230.337,860.216Z" style="fill:#2a2a2a"/><path d="M244.026,866.621a6.6,6.6,0,1,0,6.6,6.6A6.605,6.605,0,0,0,244.026,866.621Zm0,7.2a.6.6,0,1,1,.6-.6A.6.6,0,0,1,244.026,873.816Z" style="fill:#2a2a2a"/><path d="M244.026,931.843a6.6,6.6,0,1,0,6.6,6.6A6.605,6.605,0,0,0,244.026,931.843Zm0,7.2a.6.6,0,1,1,.6-.6A.6.6,0,0,1,244.026,939.038Z" style="fill:#2a2a2a"/><path d="M244.026,960.983a6.6,6.6,0,1,0,6.6,6.6A6.605,6.605,0,0,0,244.026,960.983Zm0,7.2a.6.6,0,1,1,.6-.6A.6.6,0,0,1,244.026,968.179Z" style="fill:#2a2a2a"/><path d="M215.367,931.843a6.6,6.6,0,1,0,6.6,6.6A6.605,6.605,0,0,0,215.367,931.843Zm0,7.2a.6.6,0,1,1,.6-.6A.6.6,0,0,1,215.367,939.038Z" style="fill:#2a2a2a"/><path d="M215.367,960.983a6.6,6.6,0,1,0,6.6,6.6A6.605,6.605,0,0,0,215.367,960.983Zm0,7.2a.6.6,0,1,1,.6-.6A.6.6,0,0,1,215.367,968.179Z" style="fill:#2a2a2a"/><path d="M216.943,839.627a6.6,6.6,0,1,0,6.6,6.6A6.605,6.605,0,0,0,216.943,839.627Zm0,7.194a.6.6,0,1,1,.6-.6A.6.6,0,0,1,216.943,846.821Z" style="fill:#2a2a2a"/><path d="M131.49,963.922h30.225V898.015H131.49Zm6-59.907h18.225v53.907H137.49Z" style="fill:#2a2a2a"/><path d="M16.2,918.5V928.77H64.113l.861-1.523c1.857-3.285,5.936-5.408,10.392-5.408,6.291,0,11.409,4.1,11.409,9.13s-5.118,9.13-11.409,9.13c-4.456,0-8.535-2.122-10.392-5.407l-.861-1.523H16.2v10.964l73.367,29.346,40.13-10.223v-64.57L89.555,888.455Zm107.5-15.157V958.59l-33.717,8.59L22.2,940.068v-.9H60.738A18.037,18.037,0,0,0,75.366,946.1c9.6,0,17.409-6.787,17.409-15.13s-7.81-15.13-17.409-15.13a18.034,18.034,0,0,0-14.627,6.932H22.2v-.241l67.793-27.77Z" style="fill:#2a2a2a"/><path d="M546.536,811.5H329.793a26.029,26.029,0,0,0-26,26V942.731a26.029,26.029,0,0,0,26,26H546.536a26.029,26.029,0,0,0,26-26V837.5A26.029,26.029,0,0,0,546.536,811.5Zm20,131.234a20.022,20.022,0,0,1-20,20H329.793a20.023,20.023,0,0,1-20-20V837.5a20.023,20.023,0,0,1,20-20H546.536a20.022,20.022,0,0,1,20,20Z" style="fill:#2a2a2a"/><path d="M357.887,956.018H515.131V824.192H357.887Zm6-125.825H509.131V950.018H363.887Z" style="fill:#2a2a2a"/><path d="M322.417,836.061h-.336a9.052,9.052,0,0,0-9.042,9.041v47.324a9.052,9.052,0,0,0,9.042,9.042h.336a9.052,9.052,0,0,0,9.042-9.042V845.1A9.052,9.052,0,0,0,322.417,836.061Zm3.042,56.365a3.045,3.045,0,0,1-3.042,3.042h-.336a3.045,3.045,0,0,1-3.042-3.042V845.1a3.045,3.045,0,0,1,3.042-3.041h.336a3.045,3.045,0,0,1,3.042,3.041Z" style="fill:#2a2a2a"/><path d="M335.394,901.468h19.041V836.061H335.394Zm6-6V887.6h7.041v7.869Zm7.041-23.7V881.6h-7.041v-9.835Zm-7.041-6v-10.87h7.041v10.87Zm7.041-23.7v6.833h-7.041v-6.833Z" style="fill:#2a2a2a"/><path d="M552.593,836.061h-.336a9.052,9.052,0,0,0-9.042,9.041v47.324a9.053,9.053,0,0,0,9.042,9.042h.336a9.053,9.053,0,0,0,9.042-9.042V845.1A9.052,9.052,0,0,0,552.593,836.061Zm3.042,56.365a3.045,3.045,0,0,1-3.042,3.042h-.336a3.045,3.045,0,0,1-3.042-3.042V845.1a3.045,3.045,0,0,1,3.042-3.041h.336a3.045,3.045,0,0,1,3.042,3.041Z" style="fill:#2a2a2a"/><path d="M520.239,901.468h19.04V836.061h-19.04Zm6-6v-6.834h7.04v6.834Zm7.04-23.7v10.87h-7.04v-10.87Zm-7.04-6v-9.835h7.04v9.835Zm7.04-23.7v7.868h-7.04v-7.868Z" style="fill:#2a2a2a"/><path d="M614.906,776.582l-8.967,4.428A2.668,2.668,0,1,0,608.3,785.8l6.6-3.261v5.141l-8.967,4.428a2.668,2.668,0,1,0,2.363,4.785l6.6-3.261v5.4l-8.967,4.428a2.668,2.668,0,1,0,2.363,4.785l6.6-3.261v4.886l-8.967,4.428a2.668,2.668,0,1,0,2.363,4.785l6.6-3.261v5.4l-8.967,4.428a2.668,2.668,0,1,0,2.363,4.785l6.6-3.261v4.63l-8.967,4.428A2.668,2.668,0,1,0,608.3,841l6.6-3.261v5.4l-8.967,4.428a2.668,2.668,0,1,0,2.363,4.785l6.6-3.261v4.885l-8.967,4.428a2.668,2.668,0,1,0,2.363,4.785l6.6-3.261v5.4l-8.967,4.428a2.668,2.668,0,1,0,2.363,4.785l6.6-3.261v4.629l-8.967,4.428a2.668,2.668,0,1,0,2.363,4.785l6.6-3.261v5.4l-8.967,4.428a2.668,2.668,0,1,0,2.363,4.785l6.6-3.261v4.885l-8.967,4.428a2.668,2.668,0,1,0,2.363,4.785l6.6-3.261v5.4l-8.967,4.428a2.668,2.668,0,1,0,2.363,4.785l6.6-3.261v4.63l-8.967,4.428a2.668,2.668,0,1,0,2.363,4.785l6.6-3.261v5.4l-8.967,4.428a2.668,2.668,0,1,0,2.363,4.785l6.6-3.261v4.886l-8.967,4.428a2.668,2.668,0,1,0,2.363,4.785l6.6-3.261v5.4l-8.967,4.428a2.668,2.668,0,1,0,2.363,4.785l6.6-3.261v6.615H740.333V761.909H614.906ZM735,767.246V960.789H620.244v-3.913l7.119-3.516A2.668,2.668,0,1,0,625,948.576l-4.756,2.349v-5.4l7.119-3.516A2.668,2.668,0,1,0,625,937.227l-4.756,2.349V934.69l7.119-3.516A2.668,2.668,0,1,0,625,926.389l-4.756,2.349v-5.4l7.119-3.516A2.668,2.668,0,1,0,625,915.041l-4.756,2.349v-4.63l7.119-3.515A2.668,2.668,0,1,0,625,904.46l-4.756,2.349v-5.4l7.119-3.516A2.668,2.668,0,1,0,625,893.11l-4.756,2.349v-4.885l7.119-3.515A2.668,2.668,0,1,0,625,882.273l-4.756,2.349v-5.4l7.119-3.516A2.668,2.668,0,1,0,625,870.924l-4.756,2.349v-4.629l7.119-3.516A2.668,2.668,0,1,0,625,860.343l-4.756,2.349v-5.4l7.119-3.515A2.668,2.668,0,1,0,625,848.994l-4.756,2.349v-4.885l7.119-3.516A2.668,2.668,0,1,0,625,838.156l-4.756,2.349v-5.4l7.119-3.515A2.668,2.668,0,1,0,625,826.808l-4.756,2.349v-4.63l7.119-3.516A2.668,2.668,0,0,0,625,816.226l-4.756,2.349v-5.4l7.119-3.516A2.668,2.668,0,1,0,625,804.877l-4.756,2.349V802.34l7.119-3.516A2.668,2.668,0,1,0,625,794.039l-4.756,2.349v-5.4l7.119-3.516A2.668,2.668,0,1,0,625,782.691l-4.756,2.349V779.9l7.119-3.516A2.668,2.668,0,1,0,625,771.6l-4.756,2.349v-6.7Z" style="fill:#2a2a2a"/><path d="M908.045,129.939a34.129,34.129,0,0,0,16.315,3.955,39.129,39.129,0,0,0,19.034-5.109,63.007,63.007,0,0,0,17.551-14.831l20.763,20.6,3.791-4.12L964.405,109.5a117.067,117.067,0,0,0,14.173-24.555l-5.109-3.791a129.3,129.3,0,0,1-13.348,24.06q-22.908-22.575-32.136-33.783,9.556-5.106,15.491-9.064a37.8,37.8,0,0,0,9.888-9.476,21.358,21.358,0,0,0,3.956-12.772q0-9.722-6.757-15.738T932.93,18.371q-11.537,0-18.869,6.674a21.671,21.671,0,0,0-7.333,16.727,31.44,31.44,0,0,0,3.131,13.1,77.95,77.95,0,0,0,9.559,15.079Q906.4,76.874,899.147,84.29T891.9,103.241a29.244,29.244,0,0,0,4.366,15.655A30.371,30.371,0,0,0,908.045,129.939Zm4.615-88.166a16.8,16.8,0,0,1,5.685-12.937q5.685-5.191,14.749-5.191,8.4,0,13.349,4.532a15.442,15.442,0,0,1,4.943,11.948A17.792,17.792,0,0,1,947.844,51a33,33,0,0,1-8.816,8.157q-5.277,3.379-14.5,8.157Q912.66,52.156,912.66,41.773Zm-8.241,45.4q6.427-6.342,18.458-12.937,5.6,6.759,13.019,14.42t20.764,21.011q-15.165,18.293-32.135,18.292a28.176,28.176,0,0,1-13.349-3.214,24.682,24.682,0,0,1-9.641-8.9,23.932,23.932,0,0,1-3.543-12.937A21.232,21.232,0,0,1,904.42,87.174Z" style="fill:#2a2a2a"/><path d="M312.8,771.153h5.032v2.094H425.649a7.817,7.817,0,0,0,6.621,3.675H534.058v-.047a51.849,51.849,0,0,0,6.052-1.561l30.405-8.68V753.606l-36.037-10.287H432.929a8.476,8.476,0,0,0-6.981,3.675H317.836v2.095H312.8a11.032,11.032,0,0,0,0,22.064Zm251.711-9.046-27.457,7.839V750.3l27.457,7.838ZM432.929,749.319h98.129v21.6H432.27a1.825,1.825,0,0,1-1.823-1.822V751.8A2.485,2.485,0,0,1,432.929,749.319Zm-109.093,3.675H424.447v14.253H323.836ZM312.8,755.089h5.032v10.064H312.8a5.032,5.032,0,0,1,0-10.064Z" style="fill:#2a2a2a"/><path d="M509.671,705.208v-.51c10.3-3.647,15.829-26.865,15.829-48.831s-5.527-45.185-15.829-48.832v-.51h-4.01a76.31,76.31,0,0,0-152.514,0h-9.515v.51c-10.3,3.647-15.828,26.865-15.828,48.832s5.527,45.184,15.828,48.831v.51h39.821V609.381a45.951,45.951,0,1,1,91.9,0v95.827Zm10.117-49.341c0,22.505-5.237,37.768-10.117,42.252v-84.5C514.551,618.1,519.788,633.362,519.788,655.867Zm-186.272,0c0-22.5,5.237-37.768,10.116-42.252v84.5C338.753,693.634,333.516,678.372,333.516,655.867ZM503.959,699.5H481.068V612.237h22.892Zm-126.218,0h-28.4V612.237h28.4ZM429.4,557.717a51.726,51.726,0,0,0-51.58,48.808H358.86a70.6,70.6,0,0,1,141.09,0H480.985A51.726,51.726,0,0,0,429.4,557.717Z" style="fill:#2a2a2a"/><path d="M646.029,567.566a10.791,10.791,0,0,0,3.944-14.724l-.21-.365a10.777,10.777,0,0,0-14.725-3.944L589.559,574.79a10.778,10.778,0,0,0-3.943,14.728l.208.361a10.708,10.708,0,0,0,6.545,5.022,10.832,10.832,0,0,0,2.808.372,10.713,10.713,0,0,0,5.372-1.449Zm-52.106,21.539a4.751,4.751,0,0,1-2.9-2.229l-.209-.361a4.781,4.781,0,0,1,1.75-6.528l45.479-26.258a4.756,4.756,0,0,1,2.383-.643,4.809,4.809,0,0,1,1.244.165,4.748,4.748,0,0,1,2.9,2.227l.211.365a4.786,4.786,0,0,1-1.749,6.528l-45.48,26.258A4.76,4.76,0,0,1,593.922,589.105Z" style="fill:#2a2a2a"/><path d="M630.141,610.945l-18.172,10.492,3,5.2,18.172-10.491,1.431,2.479-17.19,9.924,3,5.2,17.19-9.924,1.432,2.48-16.109,9.3,3,5.2L642,631.49l1.431,2.479-15.028,8.676,3,5.2,15.027-8.676,1.432,2.48-15.63,9.024,1.319,12.8H617.738v54.966h33.35c7.718,5.979,17.226,9.385,28.231,9.973,1.188.063,2.357.092,3.5.092a71.6,71.6,0,0,0,21.918-3.42l.776-.276.526-.634c.232-.279,23.33-28.108,34.508-43.271,3.606-4.893,4.957-9.988,4.014-15.144-1.764-9.635-11.05-15.73-11.444-15.985l-14.075-8.129,1.432-2.48,15.027,8.676,3-5.2-15.027-8.676,1.431-2.479,16.108,9.3,3-5.2-16.109-9.3,1.432-2.48,17.19,9.924,3-5.2-17.19-9.924,1.431-2.479,18.172,10.491,3-5.2-18.172-10.492,1.431-2.479,19.352,11.173,3-5.2L741.2,603.27l1.445-2.5,20.5,11.868,3.006-5.193-20.507-11.871v0l-2.025-1.169-.57-.33h0l-10.727-6.194h0l-.09-.052-2.5-1.446,0,0-20.534-11.824-2.994,5.2,20.529,11.821-1.445,2.5-19.352-11.173-3,5.2,19.352,11.173-1.431,2.479L702.68,591.264l-3,5.2,18.172,10.491-1.432,2.48-17.19-9.924-3,5.2,17.19,9.924L711.99,617.1l-16.108-9.3-3,5.2,16.109,9.3-1.432,2.479L692.532,616.1l-3,5.2,15.027,8.676-1.431,2.479L688.486,624H678.424l-14.642,8.453-1.432-2.479,15.027-8.676-3-5.2-15.027,8.676L657.92,622.3l16.109-9.3-3-5.2-16.108,9.3-1.431-2.479,17.19-9.924-3-5.2-17.19,9.924-1.432-2.48,18.172-10.492-3-5.2-18.172,10.491-1.431-2.479L663.979,588.1l-3-5.2L641.628,594.08l-1.445-2.5,20.529-11.821-2.994-5.2-20.534,11.824,0,0-2.5,1.446-.09.052h0l-10.727,6.194h0l-.57.33-2.025,1.169v0l-20.507,11.871,3.006,5.193,20.5-11.868,1.444,2.5-19.352,11.173,3,5.2,19.352-11.173Zm-6.4,58.528h10.435l3.347,32.488.281.522a52.639,52.639,0,0,0,6.9,9.955H623.738Zm106.17-14.629c.662.449,7.538,5.264,8.758,12.024.633,3.5-.331,6.927-2.946,10.474-10.11,13.716-30.153,38-33.739,42.329-4.686,1.442-30.26,8.3-48.549-7.067v-.166h-.192a43.516,43.516,0,0,1-9.872-12.281L638.6,653.92l12.262-7.08,4.909,8.5a35.117,35.117,0,1,0,54.967.683l5.3-9.186Zm-46.918-6.457A29.114,29.114,0,1,1,653.876,677.5,29.147,29.147,0,0,1,682.99,648.387Zm23.483,3.034a35.321,35.321,0,0,0-5.145-3.851l30.6-53,5.526,3.19ZM680.032,630h6.847l13.249,7.649-4.173,7.228a35.033,35.033,0,0,0-25.172-.3l-4-6.929Zm-45.046-35.427,30.36,52.586a35.278,35.278,0,0,0-5.219,3.722L629.46,597.765Z" style="fill:#2a2a2a"/><path d="M777.351,574.791l-45.48-26.258a10.775,10.775,0,0,0-14.723,3.944l-.211.365a10.791,10.791,0,0,0,3.944,14.724l45.48,26.258a10.716,10.716,0,0,0,5.372,1.449,10.837,10.837,0,0,0,2.808-.372,10.706,10.706,0,0,0,6.542-5.02l.214-.367A10.791,10.791,0,0,0,777.351,574.791ZM776.1,586.512l-.213.367a4.787,4.787,0,0,1-6.528,1.75l-45.48-26.258a4.786,4.786,0,0,1-1.749-6.528l.212-.365a4.776,4.776,0,0,1,6.526-1.749l45.48,26.259A4.784,4.784,0,0,1,776.1,586.512Z" style="fill:#2a2a2a"/><path d="M682.99,700.543A23.043,23.043,0,1,0,659.947,677.5,23.069,23.069,0,0,0,682.99,700.543Zm0-40.086A17.043,17.043,0,1,1,665.947,677.5,17.062,17.062,0,0,1,682.99,660.457Z" style="fill:#2a2a2a"/><path d="M302.026,545.864c-11.427,8.47-19.755,12.119-25.455,11.129-4.893-.841-7.824-5.2-11.219-10.24-4.379-6.506-9.343-13.88-19.794-14.621-14.771-1.063-29.741,7.972-33.345,10.313H0v6H187.013v15.928H0v6H213.119c3.8,0,8.743,2.948,14.462,6.362,8.506,5.077,19.5,11.638,33.077,11.637a43.287,43.287,0,0,0,11.336-1.529c29.193-7.883,34.559-36.824,34.773-38.052l1.289-7.4Zm-91.907,18.508H193.013V548.444h17.106Zm60.311,16.677c-16.462,4.444-29.389-3.269-39.773-9.467-5.3-3.165-10.012-5.973-14.538-6.892V547.078c4.04-2.511,16.929-9.81,29.014-8.962,7.532.534,11.277,6.1,15.241,11.987,3.815,5.667,7.759,11.527,15.18,12.8,6.052,1.043,13.423-1.28,22.857-7.26C294.983,563.989,287.184,576.525,270.43,581.049Z" style="fill:#2a2a2a"/><path d="M943.228,564.372a7.964,7.964,0,0,1,0-15.928H1000v-6H943.228a13.964,13.964,0,0,0,0,27.928H1000v-6Z" style="fill:#2a2a2a"/><path d="M516.589,1.108V151.816a13.654,13.654,0,0,1-13.638,13.638H429.333a13.654,13.654,0,0,1-13.638-13.638V1.108c0-.374.026-.741.056-1.108h-6c-.021.369-.056.734-.056,1.108V151.816a19.66,19.66,0,0,0,19.638,19.638h73.619a19.66,19.66,0,0,0,19.638-19.638V1.108c0-.374-.035-.739-.056-1.108h-6C516.562.366,516.589.734,516.589,1.108Z" style="fill:#2a2a2a"/><path d="M466.142,123.324a33.517,33.517,0,1,0-33.517-33.517A33.555,33.555,0,0,0,466.142,123.324Zm0-61.034a27.517,27.517,0,1,1-27.517,27.517A27.548,27.548,0,0,1,466.142,62.29Z" style="fill:#2a2a2a"/><path d="M466.142,105.655a15.848,15.848,0,1,0-15.848-15.848A15.866,15.866,0,0,0,466.142,105.655Zm0-25.7a9.848,9.848,0,1,1-9.848,9.848A9.859,9.859,0,0,1,466.142,79.959Z" style="fill:#2a2a2a"/><path d="M466.142,42.522a15.848,15.848,0,1,0-15.848-15.848A15.866,15.866,0,0,0,466.142,42.522Zm0-25.7a9.848,9.848,0,1,1-9.848,9.848A9.859,9.859,0,0,1,466.142,16.826Z" style="fill:#2a2a2a"/><path d="M435.9,157.31h60.489a9.768,9.768,0,0,0,9.757-9.757v-2.432a9.768,9.768,0,0,0-9.757-9.757H435.9a9.768,9.768,0,0,0-9.757,9.757v2.432A9.768,9.768,0,0,0,435.9,157.31Zm-3.757-12.189a3.762,3.762,0,0,1,3.757-3.757h60.489a3.762,3.762,0,0,1,3.757,3.757v2.432a3.762,3.762,0,0,1-3.757,3.757H435.9a3.762,3.762,0,0,1-3.757-3.757Z" style="fill:#2a2a2a"/><path d="M502.951,981.47H429.333A19.646,19.646,0,0,0,409.75,1000h6a13.649,13.649,0,0,1,13.582-12.53h73.619A13.649,13.649,0,0,1,516.533,1000h6A19.646,19.646,0,0,0,502.951,981.47Z" style="fill:#2a2a2a"/><path d="M823.819,6.643A9.036,9.036,0,0,0,832.517,0h-6.854a3,3,0,0,1-1.843.643A3,3,0,0,1,821.976,0h-6.854A9.036,9.036,0,0,0,823.819,6.643Z" style="fill:#2a2a2a"/><path d="M859.212,5.252l-12.45,3.395,7.694,7.162-3.872,2.55.013-.123-.189.219c-.6.218-3.674.919-10.391-3.829l-2.04-1.442-1.787,1.745c-.062.061-6.342,6.1-14.215,5.527s-15.72-10.164-15.8-10.258l-4.991,3.277c1.166,2.224,11.374,21.127,22.146,22.994,3.326,3.258,18.1,18.673,22.205,39.111l-9.114,8.413H776.689c2.687-5.429,6.562-14.953,6.562-24.726,0-7.135-1.872-13.144-3.684-18.954-1.914-6.143-3.894-12.494-3.894-20.654,0-5.813,1.718-12.89,4.6-19.658h-6.44a56.059,56.059,0,0,0-4.162,19.658c0,9.074,2.117,15.869,4.165,22.439,1.755,5.63,3.412,10.947,3.412,17.169,0,12.892-8.074,26.007-8.154,26.136l-2.869,4.59H838.77l13.252-12.233-.274-1.606c-4.43-25.868-24.214-44.011-25.054-44.771l-.791-.715-1.064-.056c-2.425-.128-5.288-2.247-8.094-5.221a18.293,18.293,0,0,0,4.787,1.048c7.629.566,13.948-3.322,16.957-5.62,9.443,5.949,14.235,3.411,15.481,2.495l10.164-6.693L858.74,11.6l4.573-1.247.62-1.034A11.5,11.5,0,0,0,864.808,0h-6.389A8.032,8.032,0,0,1,859.212,5.252Z" style="fill:#2a2a2a"/><path d="M782.586,92.6l-16.528,25.356v16.807h91.76V117.959L841.289,92.6Zm69.231,36.164h-79.76v-9.024l13.78-21.14h52.2l13.78,21.14Z" style="fill:#2a2a2a"/><path d="M861.319,993.475,794.9,973.813l-.875.276a16.224,16.224,0,0,0-4.943,2.719l-16.82-2.944,8.129,12.926A74.294,74.294,0,0,0,773.7,1000h6.44a63.914,63.914,0,0,1,6.283-11.439l1.139-1.631-3.035-4.827,6.279,1.1,1.078-.938a13.869,13.869,0,0,1,3.164-2.148l28.624,8.473A9,9,0,0,0,814.985,1000h6.854a3.027,3.027,0,1,1,3.686,0h6.854a8.961,8.961,0,0,0-3.805-9.96l29,8.584c.21.362.462.836.707,1.376h6.389a19.841,19.841,0,0,0-2.755-5.714Z" style="fill:#2a2a2a"/><path d="M965.971,863.664H842.711a12.528,12.528,0,0,1,12.138-9.517h79.386a18.515,18.515,0,0,0,.014-37.031h0l-60.84-.276-.014,3v-3H854.253V803.824H824.066v5.258H807.274V830.6h16.792v5.259h30.187V822.84h19.128l60.84.276.014-3v3a12.516,12.516,0,0,1,0,25.031H854.849A18.53,18.53,0,0,0,836.6,863.664H803.833A11.847,11.847,0,0,0,792,875.5v61.478a11.847,11.847,0,0,0,11.833,11.834H965.971A11.847,11.847,0,0,0,977.8,936.975V875.5A11.847,11.847,0,0,0,965.971,863.664ZM813.274,824.6v-9.516h10.792V824.6Zm34.979,5.259H830.066V809.824h18.187ZM971.8,936.975a5.84,5.84,0,0,1-5.833,5.834H803.833A5.84,5.84,0,0,1,798,936.975V875.5a5.839,5.839,0,0,1,5.833-5.833H965.971A5.839,5.839,0,0,1,971.8,875.5Z" style="fill:#2a2a2a"/><path d="M833.73,896.513H817.549V906.6H807.464v16.182h10.085v10.085H833.73V922.779h10.085V906.6H833.73Zm4.085,16.085v4.182H827.73v10.085h-4.182V916.779H813.464V912.6h10.085V902.513h4.182V912.6Z" style="fill:#2a2a2a"/><path d="M921.785,912.841a10.3,10.3,0,1,0,10.3,10.3A10.311,10.311,0,0,0,921.785,912.841Zm0,14.6a4.3,4.3,0,1,1,4.3-4.3A4.3,4.3,0,0,1,921.785,927.44Z" style="fill:#2a2a2a"/><path d="M944.837,912.841a10.3,10.3,0,1,0,10.3,10.3A10.311,10.311,0,0,0,944.837,912.841Zm0,14.6a4.3,4.3,0,1,1,4.3-4.3A4.3,4.3,0,0,1,944.837,927.44Z" style="fill:#2a2a2a"/><path d="M861.123,917.836h10.326a4.945,4.945,0,0,1,4.945,4.945v1.1a4.945,4.945,0,0,1-4.945,4.945H861.124a4.945,4.945,0,0,1-4.945-4.945v-1.1A4.944,4.944,0,0,1,861.123,917.836Z" style="fill:#2a2a2a"/><path d="M887.393,917.836h10.325a4.945,4.945,0,0,1,4.945,4.945v1.1a4.945,4.945,0,0,1-4.945,4.945H887.393a4.944,4.944,0,0,1-4.944-4.944V922.78A4.944,4.944,0,0,1,887.393,917.836Z" style="fill:#2a2a2a"/><path d="M902.147,671.021H884.965L828.338,600.8H958.774Zm-14.313-6h11.444L946.228,606.8H840.885Z" style="fill:#2a2a2a"/><path d="M903.713,760.414H883.4V665.021h20.313Zm-14.313-6h8.313V671.021H889.4Z" style="fill:#2a2a2a"/><path d="M948.024,776.392H838.192l47.547-21.978h15.646Zm-82.551-6h55.742l-21.175-9.978H887.06Z" style="fill:#2a2a2a"/><path d="M819.544,187.669a54.425,54.425,0,1,0,54.425,54.425A54.487,54.487,0,0,0,819.544,187.669Zm19.428,50.8a19.576,19.576,0,0,0-1.508-4.687l27.328-8.914a47.974,47.974,0,0,1,2.232,7.705Zm-19.428,17.4a13.775,13.775,0,1,1,13.775-13.775A13.79,13.79,0,0,1,819.544,255.869Zm-19.4-17.589-27.688-7.462a47.994,47.994,0,0,1,2.252-7l26.941,9.908A19.574,19.574,0,0,0,800.146,238.281Zm19.4-44.611a48.464,48.464,0,0,1,42.748,25.705l-28.321,9.238a19.681,19.681,0,0,0-28.852,0L777.338,218.4A48.45,48.45,0,0,1,819.544,193.669Zm-48.425,48.425a48.69,48.69,0,0,1,.3-5.342l28.5,7.681a19.815,19.815,0,0,0,12.074,15.931L809.1,289.373A48.5,48.5,0,0,1,771.119,242.094ZM815.042,290.3l2.842-28.517c.549.046,1.1.084,1.661.084a19.752,19.752,0,0,0,2.739-.212l2.594,28.562a48.7,48.7,0,0,1-5.333.3C818.025,290.519,816.525,290.44,815.042,290.3Zm15.765-1.119-2.662-29.309a19.8,19.8,0,0,0,11-15.308l28.676-6.027c.086,1.175.145,2.358.145,3.555A48.5,48.5,0,0,1,830.806,289.183Z" style="fill:#2a2a2a"/><path d="M819.544,171.667a70.427,70.427,0,1,0,70.428,70.428A70.507,70.507,0,0,0,819.544,171.667Zm0,134.855a64.427,64.427,0,1,1,64.428-64.427A64.5,64.5,0,0,1,819.544,306.521Z" style="fill:#2a2a2a"/><rect x="68.88" y="660.557" width="74.689" height="6" style="fill:#2a2a2a"/><rect x="68.88" y="700.043" width="74.689" height="6" style="fill:#2a2a2a"/><rect x="68.88" y="737.815" width="74.689" height="6" style="fill:#2a2a2a"/><rect x="68.88" y="775.589" width="74.689" height="6" style="fill:#2a2a2a"/><rect x="66.139" y="813.361" width="77.43" height="6" style="fill:#2a2a2a"/><rect x="592.255" y="582.897" width="68.073" height="5.999" transform="translate(-209.04 391.636) rotate(-30)" style="fill:#2a2a2a"/><rect x="737.619" y="551.86" width="5.999" height="68.073" transform="translate(-137.09 934.348) rotate(-60)" style="fill:#2a2a2a"/></g></svg>