<svg xmlns="http://www.w3.org/2000/svg" viewBox="0 0 215.892 153.951" color="#5bcbf5"><title>Asset 1</title><g id="Layer_2" data-name="Layer 2"><g id="Layer_1-2" data-name="Layer 1"><path d="M84.591,22.3c1.039,4.673,2.327,9.471,3.938,14.67A75.283,75.283,0,0,0,94.443,50.74a57.4,57.4,0,0,0,13.542,16.874c6.833,5.75,15.093,9.609,25.252,11.8,2.275.49,4.606.775,7.074,1.077.568.07,1.138.14,1.706.212l2.179.035c.6.014,1.2.027,1.8.036h.018a2.682,2.682,0,0,0,1.926-1.265,3.089,3.089,0,0,0,.457-2.832c-.5-1.3-1.318-2.23-3.708-2.521q-1.293-.157-2.593-.3c-1.807-.209-3.613-.418-5.414-.669a49.706,49.706,0,0,1-14.123-4.348,47.276,47.276,0,0,1-14.127-10.107A54.106,54.106,0,0,1,97.664,42.3,108.266,108.266,0,0,1,93.17,29.708c-1.146-3.983-1.989-8.055-2.8-11.992l-.343-1.654c-.514-2.457-.936-4.941-1.345-7.345q-.253-1.493-.514-2.982c-.46-2.6-1.1-3.344-2.118-3.812a3.1,3.1,0,0,0-3.292.173,2.629,2.629,0,0,0-1.446,2.694C82.386,11.51,83.429,17.072,84.591,22.3Z" fill="currentColor"/><path d="M35.456,93.914a20.347,20.347,0,0,0,1.974-8.4l0-.1,0-.1c.135-4.165-.771-7.944-1.73-11.946q-.226-.937-.445-1.874C34.677,69,33.987,66.459,33.319,64c-.421-1.545-.842-3.091-1.241-4.642l-.921-3.569c-1.4-5.419-2.848-11.022-4.186-16.568-.528-2.187-.975-4.4-1.407-6.534-.374-1.849-.76-3.761-1.189-5.6a5.313,5.313,0,0,0-.815-1.991,2.929,2.929,0,0,0-2.325-1.117,3.238,3.238,0,0,0-.514.041,3.439,3.439,0,0,0-2.665,2.171c-.4,1.016-.19,2.161.19,3.946l.128.6c1.233,5.965,2.69,12.017,4.1,17.87l.185.767c.4,1.65.851,3.269,1.329,4.982.385,1.376.77,2.752,1.122,4.136,1.716,6.722,3.111,12.314,4.394,17.6a61.364,61.364,0,0,1,1.284,6.636c.529,4.108-.848,7.669-2.18,10.684-1.762,3.984-3.782,8.282-6.356,13.525a99.331,99.331,0,0,0-6.245,14.953,3.457,3.457,0,0,0,.253,2.654,3.129,3.129,0,0,0,1.955,1.528c1.328.37,3.13.279,4.174-2.265.591-1.44,1.157-2.949,1.706-4.407.81-2.155,1.647-4.384,2.621-6.567,1.338-3,2.757-6.006,4.129-8.912C32.39,100.65,33.988,97.264,35.456,93.914Z" fill="currentColor"/><path d="M9.735,56.448l-.213-1.1a86.905,86.905,0,0,1-1.486-9.525,4.561,4.561,0,0,0-1.889-3.519,3.042,3.042,0,0,0-1.652-.515,2.844,2.844,0,0,0-.9.15,3.4,3.4,0,0,0-2.33,3.138C1.867,49.354,2.555,54.2,3.434,58.9c1.043,5.576,2.2,11.124,3.451,16.49A26.212,26.212,0,0,1,5.17,91.837c-.785,1.887-1.625,3.762-2.437,5.574-.82,1.833-1.67,3.728-2.44,5.591a3.134,3.134,0,0,0,.174,2.981,4.349,4.349,0,0,0,3.615,1.722,2.787,2.787,0,0,0,2.088-1.727c2.088-4.5,4.27-9.353,6.076-14.38a41.217,41.217,0,0,0,1.76-8.533c.477-3.708-.263-7.513-1.061-11.092C11.873,67.175,10.823,62.1,9.735,56.448Z" fill="currentColor"/><path d="M120.951,124.621l1.26.065c2.192.11,4.369.334,6.474.551,2.248.231,4.371.449,6.511.541l1.364.061c6.572.291,12.777.568,18.841-.982a54.116,54.116,0,0,0,11.025-3.994,48.934,48.934,0,0,0,17.8-15.057,47.048,47.048,0,0,0,9.16-24.829,48.578,48.578,0,0,0-1.991-17.806,45.673,45.673,0,0,0-6.416-13.093,48,48,0,0,0-14.537-13.327A60.163,60.163,0,0,0,152.709,29.7,34.609,34.609,0,0,1,142.2,25.781c-5.287-3.23-8.1-8.032-8.142-13.887-.009-1.292.037-2.568.081-3.8.034-.97.069-1.939.076-2.909a2.993,2.993,0,0,0-1.937-2.536,3.608,3.608,0,0,0-3.228.365,3.555,3.555,0,0,0-1.428,2.866c-.033.8-.033,1.593-.034,2.389,0,.917,0,1.833-.044,2.749a22.311,22.311,0,0,0,2.65,11.457c2.979,5.691,8,9.579,15.806,12.234,1.183.4,2.452.7,3.8,1.013.979.229,1.992.465,3.014.754a56.236,56.236,0,0,1,14.25,5.9A41.542,41.542,0,0,1,179.471,53.7a39.871,39.871,0,0,1,7.423,23.739l-.012.267-.5,6.032c-.025.166-.056.326-.092.474-.181.735-.34,1.48-.5,2.227a40.827,40.827,0,0,1-1.465,5.52,39.73,39.73,0,0,1-9.184,14.465c-8.477,8.541-18.687,12.919-30.351,13.014a213.9,213.9,0,0,1-21.8-1.3c-6.908-.662-14.246-.948-21.083,1.436a45.843,45.843,0,0,0-7.1,3.182,29.135,29.135,0,0,0-9.484,9c-.588.829-1.125,1.752-1.693,2.729-.2.342-.4.683-.6,1.022l-.057.128-1.385,2.9q-.369.942-.743,1.88c-.846,2.128-1.645,4.138-2.349,6.2a3.109,3.109,0,0,0,.223,2.844,3,3,0,0,0,3.188,1.639,2.948,2.948,0,0,0,2.74-2.14l.534-1.364c1.063-2.714,2.16-5.521,3.422-8.254,3.933-8.523,11.063-13.6,20.617-14.678A70.917,70.917,0,0,1,120.951,124.621Z" fill="currentColor"/><path d="M83.2,107.1a3.387,3.387,0,0,0,1.427-2.875,2.764,2.764,0,0,0-1.812-2.905c-2.091-.871-2.941-.061-3.264.243-3.223,3.061-5.883,5.665-8.4,8.432-.48.528-.977,1.072-1.371,1.6l-.274.367-2.744,4.32c-1.094,2.045-2.243,4.237-3.281,6.486a115.988,115.988,0,0,0-7.161,19.786,3.58,3.58,0,0,0,.5,2.833,3.256,3.256,0,0,0,2.32,1.441,3.441,3.441,0,0,0,3.552-2.514,55.906,55.906,0,0,1,2-6.769c.679-1.888,1.419-3.76,2.135-5.57.5-1.261,1-2.521,1.476-3.79l.147-.406,2.61-5.887A53.58,53.58,0,0,1,83.2,107.1Z" fill="currentColor"/><path d="M58.225,98.489c1.637-4.11,2.742-7.587,2.83-11.222.106-4.433-.956-8.755-2.251-13.54-1.047-3.871-2.222-7.8-3.358-11.6-.652-2.18-1.3-4.359-1.937-6.543l-.263-.905c-.937-3.23-1.907-6.571-2.75-9.918-1.135-4.506-2.281-9.325-3.717-15.627-.354-1.548-.66-3.106-.957-4.613-.3-1.547-.62-3.146-.976-4.679-.086-.368-.155-.742-.225-1.117a9.412,9.412,0,0,0-.268-1.2l-1.636-5.105-.425-.413-1.263-.519a3.981,3.981,0,0,0-.627-.051,3.114,3.114,0,0,0-2.2.871,3.209,3.209,0,0,0-.984,2.809c.807,4.771,1.551,8.658,2.342,12.234,1.494,6.753,2.822,12.359,4.181,17.643C44.824,49.2,46.032,53.471,47.2,57.6q.708,2.506,1.41,5.014l.058.2q2.448,8.782,4.918,17.559a21.206,21.206,0,0,1-1.819,16.158c-2.076,3.925-4.214,7.854-6.215,11.517a109.148,109.148,0,0,0-10.739,27.085,3.955,3.955,0,0,0,.546,3.087,3.053,3.053,0,0,0,2.124,1.344,3.306,3.306,0,0,0,3.512-2.2c.222-.794.435-1.59.648-2.386.566-2.112,1.151-4.3,1.89-6.453a118.529,118.529,0,0,1,9.285-19.975c.144-.254.3-.5.459-.755.105-.168.261-.413.321-.533l.087-.327,4.209-7.768A5.767,5.767,0,0,0,58.225,98.489Z" fill="currentColor"/><path d="M59.779,11.377c.182.631.363,1.262.528,1.9L60.6,14.38c.54,2.071,1.1,4.214,1.6,6.354.489,2.1.95,4.2,1.412,6.3.893,4.065,1.815,8.269,2.925,12.3C67.847,44.11,69.5,49.128,71.9,55.6A77.778,77.778,0,0,0,82.985,75.583a64.756,64.756,0,0,0,27.337,20.87,110.817,110.817,0,0,0,14.8,4.675,71.817,71.817,0,0,0,8.612,1.451c.954.122,1.908.244,2.859.378.75.1,1.558.151,2.413.2,1.05.061,2.136.123,3.272.3a23.72,23.72,0,0,0,13.222-1.843,24.449,24.449,0,0,0,11.334-9.759,25.645,25.645,0,0,0,3.815-18.4,25.357,25.357,0,0,0-8.071-15.045c-3.874-3.6-8.9-5.117-13.3-6.127l-1.287-.293A73.651,73.651,0,0,1,136.785,48.8a42.109,42.109,0,0,1-11.272-6.549,36.762,36.762,0,0,1-11.675-16.969,69.078,69.078,0,0,1-2.419-10.078c-.409-2.32-.638-4.65-.858-6.9l-.042-.541-.088-5.432-.243-.615c-.4-.507-.836-1.024-1.3-1.562l-.645-.118L106.508,0,105.26.3a3.2,3.2,0,0,0-1.309,2.548c-.011,1.449.043,2.9.1,4.43.022.615.045,1.231.063,1.847a60.612,60.612,0,0,0,2.046,13.444,50.2,50.2,0,0,0,5.2,12.792A43.375,43.375,0,0,0,121.9,47.685a40.206,40.206,0,0,0,11.152,6.6c3.382,1.238,6.993,2.444,10.731,3.584,1.356.414,2.735.76,4.2,1.127,1.657.416,3.37.847,5.075,1.39,4.406,1.405,7.792,4.705,9.794,9.543a19.15,19.15,0,0,1-2.191,19.295,18.4,18.4,0,0,1-16.566,7.87c-1.813-.085-3.6-.3-5.271-.508-.8-.1-1.6-.191-2.4-.283-2.391-.272-4.862-.555-7.327-1.081a100.855,100.855,0,0,1-11.307-3.089,61.27,61.27,0,0,1-5.783-2.4c-1.05-.479-2.1-.959-3.163-1.4a18.176,18.176,0,0,1-2.274-1.178l-.429-.254L98.67,82.051A65.427,65.427,0,0,1,78.348,53.984c-1.979-5.086-3.753-10.453-5.422-16.407-.989-3.53-1.783-7.127-2.551-10.605-.446-2.021-.892-4.042-1.376-6.054-1.337-5.548-2.412-9.771-3.488-13.692a3.137,3.137,0,0,0-1.539-1.854A3.479,3.479,0,0,0,62.3,4.927a2.963,2.963,0,0,0-.852.122,3.26,3.26,0,0,0-2.334,3.838C59.294,9.691,59.53,10.511,59.779,11.377Z" fill="currentColor"/><path d="M211.731,53.7a70.993,70.993,0,0,0-10.184-18.8,73.022,73.022,0,0,0-14.486-14.46,61.152,61.152,0,0,0-11.412-6.947c-2.912-1.316-5.944-2.346-9.155-3.435l-1.941-.662c-2.171-.745-4.364-1.367-6.687-2.026l-1-.283c-1.974-.562-2.819-.4-3.48.013a3.079,3.079,0,0,0-1.7,3.272,2.811,2.811,0,0,0,1.915,2.59c1.5.56,3.053,1.009,4.7,1.485.868.251,1.737.5,2.6.77.84.26,1.688.5,2.538.745a54.248,54.248,0,0,1,6.566,2.188A63.126,63.126,0,0,1,186.8,28.68a66.331,66.331,0,0,1,13.607,16.382,60.656,60.656,0,0,1,7.083,17.546,62.436,62.436,0,0,1,1.664,10.468,67.563,67.563,0,0,1-.969,16.617,65.364,65.364,0,0,1-6.271,17.988,64.994,64.994,0,0,1-35.656,30.826l-3.117,1.071-11.047,2.236a52.53,52.53,0,0,1-9.895.241c-3.424-.27-6.846-.567-10.267-.865-4.22-.367-8.583-.747-12.867-1.063q-1.011-.075-1.977-.074a18.614,18.614,0,0,0-10.341,2.855c-3.226,2.068-5.066,4.312-5.793,7.06a3.022,3.022,0,0,0,1.867,3.688,3.118,3.118,0,0,0,4.065-1.278v0c.108-.166.213-.339.318-.512a9.726,9.726,0,0,1,2.109-2.631c2.525-2.069,5.688-2.883,9.674-2.482,1.7.169,3.392.37,5.086.57,2.245.267,4.567.542,6.827.729,3.014.25,6.119.395,9.122.533q1.472.069,2.944.14a68.126,68.126,0,0,0,17.187-1.528c.109-.021.222-.043.334-.062l.245-.043c.1-.018.307-.054.436-.085l.261-.178,4.7-1.526.048.07c.529-.189,1.059-.376,1.588-.563a85.942,85.942,0,0,0,8.016-3.136,67.8,67.8,0,0,0,17.747-12.263,72.861,72.861,0,0,0,12.932-16.361,66.776,66.776,0,0,0,7.078-17.227,69.047,69.047,0,0,0,1.949-10.292A71.088,71.088,0,0,0,211.731,53.7Z" fill="currentColor"/></g></g></svg>