<svg xmlns="http://www.w3.org/2000/svg" viewBox="0 0 246.775 176.849" color="#5bcbf5"><title>icon-illustration</title><g id="Layer_2" data-name="Layer 2"><g id="Layer_1-2" data-name="Layer 1"><path d="M17.163,54.769a8.7,8.7,0,0,0-8.69,8.69v43.059a8.69,8.69,0,1,0,17.381,0V63.46A8.7,8.7,0,0,0,17.163,54.769Zm2.69,51.749a2.69,2.69,0,1,1-5.381,0V63.46a2.69,2.69,0,0,1,5.381,0Z" fill="currentColor"/><path d="M28.958,115.21H46.909V54.769H28.958Zm6-6V102.5h5.951v6.709Zm5.951-21.221V96.5H34.958V87.989Zm-5.951-6V72.53h5.951v9.459Zm5.951-21.22v5.76H34.958v-5.76Z"/><path d="M228.095,54.769a8.7,8.7,0,0,0-8.69,8.69v43.059a8.69,8.69,0,1,0,17.381,0V63.46A8.7,8.7,0,0,0,228.095,54.769Zm2.69,51.749a2.69,2.69,0,1,1-5.381,0V63.46a2.69,2.69,0,0,1,5.381,0Z" fill="currentColor"/><path d="M198.349,115.21H216.3V54.769h-17.95Zm6-6v-5.761h5.95v5.761Zm5.95-21.221v9.46h-5.95v-9.46Zm-5.95-6V73.478h5.95v8.511Zm5.95-21.22v6.709h-5.95V60.769Z" fill="currentColor"/><path d="M222.7,32.26H177.175l15.117-15.118-1-1,1.728-1.728a8.444,8.444,0,1,0-11.94-11.941L183.2,4.59l-2.121-2.121L179.348,4.2l-1-1L149.278,32.26H24.076A24.1,24.1,0,0,0,0,56.337v96.436a24.1,24.1,0,0,0,24.076,24.077H222.7a24.1,24.1,0,0,0,24.077-24.077V56.337A24.1,24.1,0,0,0,222.7,32.26ZM142.14,62.333,95.8,108.677l-8.985-8.985,46.659-46.66a.268.268,0,0,1,.379,0l8.292,8.291A.717.717,0,0,1,142.14,62.333Zm-58.881,42.29,7.6,7.605-15.158,8.425-.872-.872Zm-2.811-7.054.016.016a7.938,7.938,0,0,0-1.009,1.533l-12.064,21.7,7.274,7.274,22.956-12.76,48.763-48.762a6.7,6.7,0,0,0,1.923-5.447L159.54,49.894h28.629V159.2H55.571V49.894h72.551ZM168.69,32.26h0L145.126,55.823l-5.463-5.463,6.467-6.466h0l32.215-32.215,5.463,5.463ZM185.318,6.712h0a2.444,2.444,0,1,1,3.456,3.456L187.046,11.9,183.59,8.44Zm55.457,146.061A18.1,18.1,0,0,1,222.7,170.849H24.076A18.1,18.1,0,0,1,6,152.772V56.337A18.1,18.1,0,0,1,24.076,38.26h119.2l-5.634,5.634H49.571V165.2h144.6V43.894H165.54l5.634-5.634H222.7a18.1,18.1,0,0,1,18.077,18.077Z" fill="currentColor"/></g></g></svg>