<svg xmlns="http://www.w3.org/2000/svg" viewBox="0 0 247.366 174.998" color="#5bcbf5"><title>icon-product</title><g id="Layer_2" data-name="Layer 2"><g id="Layer_1-2" data-name="Layer 1"><path d="M247.366,175H0V0H247.366ZM6,169H241.366V6H6Z" fill="currentColor"/><rect x="2.999" y="26.462" width="241.367" height="6" fill="currentColor"/><path d="M229.295,24.693a8.77,8.77,0,1,1,8.77-8.77A8.779,8.779,0,0,1,229.295,24.693Zm0-11.539a2.77,2.77,0,1,0,2.77,2.77A2.772,2.772,0,0,0,229.295,13.154Z" fill="currentColor"/><path d="M205.605,24.693a8.77,8.77,0,1,1,8.77-8.77A8.779,8.779,0,0,1,205.605,24.693Zm0-11.539a2.77,2.77,0,1,0,2.77,2.77A2.772,2.772,0,0,0,205.605,13.154Z" fill="currentColor"/><path d="M180.341,24.693a8.77,8.77,0,1,1,8.77-8.77A8.779,8.779,0,0,1,180.341,24.693Zm0-11.539a2.77,2.77,0,1,0,2.77,2.77A2.772,2.772,0,0,0,180.341,13.154Z" fill="currentColor"/><path d="M76.487,152.7H21.308V49.7h55.18Zm-49.18-6h43.18v-91H27.308Z" fill="currentColor"/><path d="M226.525,81.2H87.487V49.7H226.525Zm-133.038-6H220.525V55.7H93.487Z" fill="currentColor"/><path d="M226.525,152.7H87.487v-60H226.525Zm-133.038-6H220.525v-48H93.487Z" fill="currentColor"/></g></g></svg>